REDEMPTION CAM-MP4.mp4

General

Format                                   : MPEG-4
Format profile                           : Base Media
Codec ID                                 : isom
File size                                : 400 MiB
Duration                                 : 1h 35mn
Overall bit rate mode                    : Variable
Overall bit rate                         : 587 Kbps
Writing application                      : Lavf54.32.101

Video

ID                                       : 1
Format                                   : AVC
Format/Info                              : Advanced Video Codec
Format profile                           : High@L3.0
Format settings, CABAC                   : Yes
Format settings, ReFrames                : 4 frames
Codec ID                                 : avc1
Codec ID/Info                            : Advanced Video Coding
Duration                                 : 1h 35mn
Bit rate mode                            : Variable
Bit rate                                 : 485 Kbps
Width                                    : 720 pixels
Height                                   : 312 pixels
Display aspect ratio                     : 3:2
Original display aspect ratio            : 3:2
Frame rate mode                          : Constant
Frame rate                               : 29.970 fps
Color space                              : YUV
Chroma subsampling                       : 4:2:0
Bit depth                                : 8 bits
Scan type                                : Progressive
Bits/(Pixel*Frame)                       : 0.072
Stream size                              : 330 MiB (82%)
Writing library                          : x264 core 128 r2216 198a7ea

Audio

ID                                       : 2
Format                                   : AAC
Format/Info                              : Advanced Audio Codec
Format profile                           : LC
Codec ID                                 : 40
Duration                                 : 1h 35mn
Bit rate mode                            : Variable
Bit rate                                 : 92.2 Kbps
Maximum bit rate                         : 96.0 Kbps
Channel(s)                               : 2 channels
Channel positions                        : Front: L R
Sampling rate                            : 44.1 KHz
Compression mode                         : Lossy
Stream size                              : 62.8 MiB (16%)


Storyline

Reeling from a traumatic tour of duty in Afghanistan, Joey (Jason Statham), an ex-Special Forces soldier, returns to London to face another kind of war: life on the streets as a damaged, homeless veteran. In an attempt to rehabilitate himself, Joey assumes another manΓÇÖs identity and seeks the aid of Sister Cristina (Agata Buzek), a young nun who works at an inner-city parish. But JoeyΓÇÖs expert training as a soldier marks him as a valuable asset, and he soon finds himself caught in the dark web of LondonΓÇÖs criminal underworld. Struggling to keep hold of his integrity, Joey offers his profits to those who need it most. But when he learns his missing girlfriend was brutally murdered by a ruthless kingpin, he risks everything for bloody revenge, hurtling down a deadly path that promises to destroy him completely...or be his last and only hope at redemption.



* enjoy ...